<?xml version="1.0" encoding="UTF-8"?>
<svg id="Layer_1" data-name="Layer 1" xmlns="http://www.w3.org/2000/svg" viewBox="0 0 80 24">
  <defs>
    <style>
      .cls-1 {
        fill: #fff;
      }

      .cls-2, .cls-3 {
        fill: purple;
      }

      .cls-3 {
        stroke: #fff;
        stroke-width: 1.2px;
      }
    </style>
  </defs>
  <ellipse class="cls-2" cx="12.18" cy="12" rx="12.18" ry="12"/>
  <ellipse class="cls-3" cx="12.18" cy="12" rx="7.31" ry="7.2"/>
  <path class="cls-1" d="m9.74,15.55l6.33-3.54-6.33-3.55s0,7.09,0,7.09Zm27.69-5.9c-.58,2.85-1.02,6.34-1.25,7.77h-.16c-.19-1.48-.63-4.94-1.23-7.75l-1.48-6.99h-4.52v18.85h2.8V5.99l.28,1.45,2.85,14.09h2.8l2.8-14.09.3-1.46v15.55h2.8V2.68h-4.56s-1.44,6.97-1.44,6.97Zm13.58,9.05c-.26.52-.81.88-1.37.88-.65,0-.9-.49-.9-1.71V7.75h-3.2v10.29c0,2.54.86,3.71,2.76,3.71,1.3,0,2.34-.56,3.06-1.91h.07l.28,1.68h2.5V7.76h-3.2v10.94h0Zm9.38-5.51c-1.04-.74-1.69-1.24-1.69-2.31,0-.76.37-1.19,1.25-1.19s1.21.6,1.23,2.67l2.69-.11c.21-3.35-.93-4.74-3.87-4.74-2.73,0-4.08,1.19-4.08,3.64,0,2.22,1.11,3.23,2.92,4.56,1.55,1.17,2.46,1.82,2.46,2.76,0,.72-.46,1.21-1.28,1.21-.95,0-1.51-.88-1.37-2.41l-2.71.04c-.42,2.85.77,4.51,3.92,4.51,2.76,0,4.2-1.24,4.2-3.71,0-2.25-1.16-3.15-3.66-4.94Zm8.48-5.44h-3.06v13.77h3.06V7.76h0Zm-1.51-5.44c-1.18,0-1.74.43-1.74,1.91s.55,1.91,1.74,1.91,1.74-.38,1.74-1.91c0-1.41-.53-1.91-1.74-1.91Zm11.79,14.24l-2.8-.14c0,2.43-.28,3.21-1.23,3.21s-1.11-.88-1.11-3.73v-2.67c0-2.77.19-3.64,1.14-3.64.88,0,1.11.83,1.11,3.39l2.78-.18c.19-2.13-.09-3.6-.95-4.43-.63-.61-1.58-.9-2.9-.9-3.1,0-4.38,1.62-4.38,6.15v1.93c0,4.67,1.09,6.18,4.26,6.18,1.34,0,2.27-.27,2.9-.85.9-.81,1.25-2.2,1.18-4.34h0Z"/>
</svg>